<svg width="14" height="14" viewBox="0 0 14 14" fill="none" xmlns="http://www.w3.org/2000/svg">
<path d="M6.1192 1.30079L3.20836 2.39745C2.53753 2.64829 1.9892 3.44162 1.9892 4.15329V8.48745C1.9892 9.17579 2.4442 10.08 2.99836 10.4941L5.5067 12.3666C6.3292 12.985 7.68253 12.985 8.50503 12.3666L11.0134 10.4941C11.5675 10.08 12.0225 9.17579 12.0225 8.48745V4.15329C12.0225 3.43579 11.4742 2.64245 10.8034 2.39162L7.89253 1.30079C7.3967 1.11995 6.60336 1.11995 6.1192 1.30079Z" stroke="#292D32" stroke-width="1.5" stroke-linecap="round" stroke-linejoin="round"/>
<path d="M6.99998 7.29171C7.64431 7.29171 8.16665 6.76937 8.16665 6.12504C8.16665 5.48071 7.64431 4.95837 6.99998 4.95837C6.35565 4.95837 5.83331 5.48071 5.83331 6.12504C5.83331 6.76937 6.35565 7.29171 6.99998 7.29171Z" stroke="#292D32" stroke-width="1.5" stroke-miterlimit="10" stroke-linecap="round" stroke-linejoin="round"/>
<path d="M7 7.29163V9.04163" stroke="#292D32" stroke-width="1.5" stroke-miterlimit="10" stroke-linecap="round" stroke-linejoin="round"/>
</svg>
